HIERARCHY
ROOT Hips
{
    OFFSET 0.000000 0.000000 0.000000
    CHANNELS 6 Xposition Yposition Zposition Zrotation Xrotation Yrotation
    JOINT Spine
    {
        OFFSET -0.000000 7.236184 0.000000
        CHANNELS 3 Zrotation Xrotation Yrotation
        JOINT Spine1
        {
            OFFSET -0.000000 20.420147 0.000000
            CHANNELS 3 Zrotation Xrotation Yrotation
            JOINT Neck
            {
                OFFSET -0.000000 20.336288 1.848754
                CHANNELS 3 Zrotation Xrotation Yrotation
                JOINT Head
                {
                    OFFSET -0.000000 12.354461 -1.764923
                    CHANNELS 3 Zrotation Xrotation Yrotation
                    End Site
                    {
                        OFFSET -0.000000 22.061537 0.000000
                    }
                }
            }
            JOINT LeftShoulder
            {
                OFFSET 3.573296 18.396038 -0.314103
                CHANNELS 3 Zrotation Xrotation Yrotation
                JOINT LeftArm
                {
                    OFFSET 10.880760 0.000000 0.000000
                    CHANNELS 3 Zrotation Xrotation Yrotation
                    JOINT LeftForeArm
                    {
                        OFFSET 27.185530 0.000000 0.000000
                        CHANNELS 3 Zrotation Xrotation Yrotation
                        JOINT LeftHand
                        {
                            OFFSET 27.825975 0.000000 0.000000
                            CHANNELS 3 Zrotation Xrotation Yrotation
                            End Site
                            {
                                OFFSET 13.236923 0.000000 0.000000
                            }
                        }
                    }
                }
            }
            JOINT RightShoulder
            {
                OFFSET -3.474926 18.396038 -0.314103
                CHANNELS 3 Zrotation Xrotation Yrotation
                JOINT RightArm
                {
                    OFFSET -10.880760 0.000000 0.000000
                    CHANNELS 3 Zrotation Xrotation Yrotation
                    JOINT RightForeArm
                    {
                        OFFSET -27.185530 0.000000 0.000000
                        CHANNELS 3 Zrotation Xrotation Yrotation
                        JOINT RightHand
                        {
                            OFFSET -27.825975 0.000000 0.000000
                            CHANNELS 3 Zrotation Xrotation Yrotation
                            End Site
                            {
                                OFFSET -13.236923 0.000000 0.000000
                            }
                        }
                    }
                }
            }
        }
    }
    JOINT LeftUpLeg
    {
        OFFSET 8.824615 0.000000 0.000000
        CHANNELS 3 Zrotation Xrotation Yrotation
        JOINT LeftLeg
        {
            OFFSET -0.000000 -35.111282 0.000000
            CHANNELS 3 Zrotation Xrotation Yrotation
            JOINT LeftFoot
            {
                OFFSET -0.000000 -42.324711 0.000000
                CHANNELS 3 Zrotation Xrotation Yrotation
                JOINT LeftToeBase
                {
                    OFFSET -0.000000 -5.735999 13.236923
                    CHANNELS 3 Zrotation Xrotation Yrotation
                    End Site
                    {
                        OFFSET -0.000000 0.000000 3.529846
                    }
                }
            }
        }
    }
    JOINT RightUpLeg
    {
        OFFSET -8.824615 0.000000 0.000000
        CHANNELS 3 Zrotation Xrotation Yrotation
        JOINT RightLeg
        {
            OFFSET -0.000000 -35.111282 0.000000
            CHANNELS 3 Zrotation Xrotation Yrotation
            JOINT RightFoot
            {
                OFFSET -0.000000 -42.324711 0.000000
                CHANNELS 3 Zrotation Xrotation Yrotation
                JOINT RightToeBase
                {
                    OFFSET -0.000000 -5.735999 13.236923
                    CHANNELS 3 Zrotation Xrotation Yrotation
                    End Site
                    {
                        OFFSET -0.000000 0.000000 3.529846
                    }
                }
            }
        }
    }
}
MOTION
Frames:    5
Frame Time:    0.008333
-21.028957    81.084045    112.078712    -1.346465    -8.166782    173.423615    -0.058275    -5.967947    -0.641523    -3.331685    1.337018    -0.599727    2.994456    14.929886    -8.674238    3.961770    -21.771698    -7.768438    -3.268222    16.458044    -4.224718    -32.491467    44.085052    -54.573898    19.558897    -2.493376    -21.620529    57.851795    -3.455974    -8.550531    8.624292    16.171438    -4.235706    36.880802    42.178116    46.968826    -22.212719    -10.229501    34.958950    -50.623142    -4.164892    2.066358    6.459150    -21.649611    -1.075146    -2.340804    33.984661    14.401587    -8.762877    -15.405238    -13.910438    -0.494731    -2.116061    0.550524    -8.671188    -29.879702    -10.414663    -4.657385    41.115990    33.288765    23.723459    1.204729    -43.352764    -0.920122    -7.588017    1.006350    
-21.256079    80.799309    112.137772    -1.704586    -7.935039    173.409164    -0.126033    -5.746208    -0.534445    -3.662356    1.651993    -0.475370    2.951160    14.288020    -8.011232    3.574900    -22.131905    -7.210532    -3.299456    16.525694    -4.620703    -30.847754    44.668636    -56.782742    19.662859    -2.727537    -21.639795    57.601612    -3.720698    -8.693549    8.551918    16.294336    -3.786861    35.702282    43.381767    48.649220    -22.574785    -10.678474    35.248318    -50.564404    -4.340257    1.861801    6.016568    -22.028755    -1.173550    -2.608234    34.908356    14.686176    -8.681054    -15.719566    -14.028729    -0.467722    -2.177547    0.520528    -8.492054    -29.589518    -10.436417    -5.268526    41.024239    34.135647    23.024586    0.620474    -44.445618    -0.927452    -7.857766    1.014801    
-21.473179    80.513474    112.199150    -2.046390    -7.719469    173.406357    -0.192641    -5.534245    -0.420935    -3.961987    1.995317    -0.342800    2.919833    13.634726    -7.351927    3.161047    -22.585855    -6.665451    -3.299722    16.579554    -5.024453    -29.318457    45.074795    -58.792046    19.720646    -3.024109    -21.629061    57.341793    -4.074923    -8.862999    8.458767    16.380974    -3.358145    34.476059    44.394890    50.252232    -22.921972    -11.018829    35.492916    -50.542309    -4.460297    1.744023    5.593233    -22.420210    -1.246215    -2.855001    35.826725    14.944720    -8.616944    -16.029732    -14.157184    -0.452346    -2.229628    0.503465    -8.357690    -29.301065    -10.497135    -5.848432    40.913200    34.884274    22.269375    0.039006    -45.482925    -0.921130    -8.144292    1.008344    
-21.685234    80.223480    112.264824    -2.378247    -7.522365    173.412857    -0.259828    -5.335011    -0.301812    -4.233883    2.373017    -0.201995    2.896033    12.960968    -6.677654    2.713040    -23.141096    -6.117629    -3.270212    16.622576    -5.436000    -27.900049    45.329361    -60.612316    19.730406    -3.378275    -21.584906    57.071690    -4.520231    -9.069105    8.347385    16.439192    -2.944633    33.224426    45.229988    51.773293    -23.257938    -11.245769    35.684631    -50.560841    -4.517070    1.704887    5.181196    -22.833500    -1.294595    -3.083122    36.750038    15.179857    -8.574082    -16.340265    -14.296375    -0.445428    -2.267987    0.495802    -8.269077    -29.025331    -10.601805    -6.409755    40.799862    35.563305    21.476164    -0.552207    -46.469933    -0.898859    -8.434179    0.984423    
-21.883175    79.945908    112.332115    -2.683395    -7.358625    173.426620    -0.322820    -5.164018    -0.185569    -4.465116    2.763493    -0.063248    2.878489    12.304989    -6.015229    2.252105    -23.764948    -5.588985    -3.216226    16.650339    -5.828830    -26.681570    45.447670    -62.137878    19.698357    -3.742828    -21.506800    56.813923    -5.005360    -9.303630    8.228413    16.474287    -2.569181    32.051895    45.856182    53.109867    -23.561754    -11.355731    35.805252    -50.620548    -4.510736    1.727655    4.800878    -23.249855    -1.322585    -3.283800    37.626255    15.384877    -8.556746    -16.634829    -14.436543    -0.442546    -2.287535    0.492611    -8.231037    -28.791092    -10.744318    -6.924653    40.706032    36.151421    20.720083    -1.118243    -47.343338    -0.862747    -8.703619    0.945283    
